<mxfile host="Electron" agent="Mozilla/5.0 (Windows NT 10.0; Win64; x64) AppleWebKit/537.36 (KHTML, like Gecko) draw.io/24.7.5 Chrome/126.0.6478.183 Electron/31.3.0 Safari/537.36" version="24.7.5">
  <diagram id="C5RBs43oDa-KdzZeNtuy" name="Page-1">
    <mxGraphModel dx="794" dy="477" grid="1" gridSize="10" guides="1" tooltips="1" connect="1" arrows="1" fold="1" page="1" pageScale="1" pageWidth="827" pageHeight="1169" math="0" shadow="0">
      <root>
        <mxCell id="WIyWlLk6GJQsqaUBKTNV-0" />
        <mxCell id="WIyWlLk6GJQsqaUBKTNV-1" parent="WIyWlLk6GJQsqaUBKTNV-0" />
        <mxCell id="-0XEdSMhef69epyfGhon-0" style="edgeStyle=orthogonalEdgeStyle;rounded=0;orthogonalLoop=1;jettySize=auto;html=1;entryX=0.5;entryY=0;entryDx=0;entryDy=0;" parent="WIyWlLk6GJQsqaUBKTNV-1" source="EVUC7kipeZUn4RD7nsKl-32" target="EVUC7kipeZUn4RD7nsKl-33" edge="1">
          <mxGeometry relative="1" as="geometry" />
        </mxCell>
        <mxCell id="EVUC7kipeZUn4RD7nsKl-32" value="&lt;b&gt;1.1.&lt;/b&gt; Definir y establecer la conexión con la base de datos de la DINAC." style="rounded=1;whiteSpace=wrap;html=1;fontSize=12;glass=0;strokeWidth=0.8;shadow=0;fillColor=#dae8fc;strokeColor=#6c8ebf;opacity=70;" parent="WIyWlLk6GJQsqaUBKTNV-1" vertex="1">
          <mxGeometry x="699" y="80" width="140" height="50" as="geometry" />
        </mxCell>
        <mxCell id="EVUC7kipeZUn4RD7nsKl-36" value="" style="edgeStyle=orthogonalEdgeStyle;rounded=0;orthogonalLoop=1;jettySize=auto;html=1;fillColor=#dae8fc;strokeColor=#000000;strokeWidth=0.8;" parent="WIyWlLk6GJQsqaUBKTNV-1" source="EVUC7kipeZUn4RD7nsKl-33" target="EVUC7kipeZUn4RD7nsKl-35" edge="1">
          <mxGeometry relative="1" as="geometry" />
        </mxCell>
        <mxCell id="EVUC7kipeZUn4RD7nsKl-33" value="&lt;b&gt;1.2.&lt;/b&gt; D&lt;span style=&quot;background-color: initial;&quot;&gt;esarrollar &lt;/span&gt;&lt;span style=&quot;background-color: initial;&quot;&gt;scripts&lt;/span&gt;&lt;span style=&quot;background-color: initial;&quot;&gt; para la extracción automática de datos históricos y actuales.&lt;/span&gt;" style="rounded=1;whiteSpace=wrap;html=1;fontSize=12;glass=0;strokeWidth=0.8;shadow=0;fillColor=#dae8fc;strokeColor=#6c8ebf;opacity=70;" parent="WIyWlLk6GJQsqaUBKTNV-1" vertex="1">
          <mxGeometry x="699" y="145" width="140" height="60" as="geometry" />
        </mxCell>
        <mxCell id="EVUC7kipeZUn4RD7nsKl-44" style="edgeStyle=orthogonalEdgeStyle;rounded=0;orthogonalLoop=1;jettySize=auto;html=1;entryX=0.5;entryY=0;entryDx=0;entryDy=0;fillColor=#dae8fc;strokeColor=#000000;strokeWidth=0.8;" parent="WIyWlLk6GJQsqaUBKTNV-1" source="EVUC7kipeZUn4RD7nsKl-35" target="EVUC7kipeZUn4RD7nsKl-38" edge="1">
          <mxGeometry relative="1" as="geometry" />
        </mxCell>
        <mxCell id="EVUC7kipeZUn4RD7nsKl-35" value="&lt;b&gt;1.3.&lt;/b&gt; V&lt;span style=&quot;background-color: initial;&quot;&gt;alidar la integridad y calidad de los datos recolectados.&lt;/span&gt;" style="rounded=1;whiteSpace=wrap;html=1;fontSize=12;glass=0;strokeWidth=0.8;shadow=0;fillColor=#dae8fc;strokeColor=#6c8ebf;opacity=70;" parent="WIyWlLk6GJQsqaUBKTNV-1" vertex="1">
          <mxGeometry x="699" y="220" width="140" height="50" as="geometry" />
        </mxCell>
        <mxCell id="EVUC7kipeZUn4RD7nsKl-37" style="edgeStyle=orthogonalEdgeStyle;rounded=0;orthogonalLoop=1;jettySize=auto;html=1;entryX=0.5;entryY=0;entryDx=0;entryDy=0;fillColor=#dae8fc;strokeColor=#000000;strokeWidth=0.8;" parent="WIyWlLk6GJQsqaUBKTNV-1" source="EVUC7kipeZUn4RD7nsKl-38" target="EVUC7kipeZUn4RD7nsKl-40" edge="1">
          <mxGeometry relative="1" as="geometry" />
        </mxCell>
        <mxCell id="EVUC7kipeZUn4RD7nsKl-38" value="&lt;b&gt;1.4.&lt;/b&gt;&amp;nbsp;L&lt;span style=&quot;background-color: initial;&quot;&gt;impieza y&amp;nbsp;&lt;/span&gt;&lt;span style=&quot;background-color: initial;&quot;&gt;normalización&lt;/span&gt;&lt;span style=&quot;background-color: initial;&quot;&gt;&amp;nbsp;de datos para eliminar valores atípicos y errores&lt;/span&gt;&lt;span style=&quot;background-color: initial;&quot;&gt;.&lt;/span&gt;" style="rounded=1;whiteSpace=wrap;html=1;fontSize=12;glass=0;strokeWidth=0.8;shadow=0;fillColor=#dae8fc;strokeColor=#6c8ebf;opacity=70;" parent="WIyWlLk6GJQsqaUBKTNV-1" vertex="1">
          <mxGeometry x="699" y="287" width="140" height="56" as="geometry" />
        </mxCell>
        <mxCell id="EVUC7kipeZUn4RD7nsKl-39" value="" style="edgeStyle=orthogonalEdgeStyle;rounded=0;orthogonalLoop=1;jettySize=auto;html=1;fillColor=#dae8fc;strokeColor=#6c8ebf;opacity=70;strokeWidth=0.8;" parent="WIyWlLk6GJQsqaUBKTNV-1" source="EVUC7kipeZUn4RD7nsKl-40" target="EVUC7kipeZUn4RD7nsKl-41" edge="1">
          <mxGeometry relative="1" as="geometry" />
        </mxCell>
        <mxCell id="AED4xQPYgy-msKVutZHK-29" style="edgeStyle=orthogonalEdgeStyle;rounded=0;orthogonalLoop=1;jettySize=auto;html=1;exitX=1;exitY=0.5;exitDx=0;exitDy=0;entryX=0;entryY=0.5;entryDx=0;entryDy=0;strokeWidth=1.2;" parent="WIyWlLk6GJQsqaUBKTNV-1" source="EVUC7kipeZUn4RD7nsKl-40" target="EVUC7kipeZUn4RD7nsKl-46" edge="1">
          <mxGeometry relative="1" as="geometry" />
        </mxCell>
        <mxCell id="EVUC7kipeZUn4RD7nsKl-40" value="&lt;b&gt;1.5.&amp;nbsp;&lt;/b&gt;A&lt;span style=&quot;background-color: initial;&quot;&gt;plicación de técnicas de imputación para manejar datos&amp;nbsp;&lt;/span&gt;&lt;span style=&quot;background-color: initial;&quot;&gt;faltantes&lt;/span&gt;&lt;span style=&quot;background-color: initial;&quot;&gt;.&lt;/span&gt;" style="rounded=1;whiteSpace=wrap;html=1;fontSize=12;glass=0;strokeWidth=0.8;shadow=0;fillColor=#dae8fc;strokeColor=#6c8ebf;opacity=70;" parent="WIyWlLk6GJQsqaUBKTNV-1" vertex="1">
          <mxGeometry x="699" y="359" width="140" height="60" as="geometry" />
        </mxCell>
        <mxCell id="-0XEdSMhef69epyfGhon-1" style="edgeStyle=orthogonalEdgeStyle;rounded=0;orthogonalLoop=1;jettySize=auto;html=1;entryX=0;entryY=0.5;entryDx=0;entryDy=0;fillColor=#dae8fc;strokeColor=#6c8ebf;opacity=70;strokeWidth=0.8;" parent="WIyWlLk6GJQsqaUBKTNV-1" source="EVUC7kipeZUn4RD7nsKl-41" target="AED4xQPYgy-msKVutZHK-0" edge="1">
          <mxGeometry relative="1" as="geometry" />
        </mxCell>
        <mxCell id="EVUC7kipeZUn4RD7nsKl-41" value="&lt;b&gt;1.6.&lt;/b&gt;&amp;nbsp;D&lt;span style=&quot;background-color: initial;&quot;&gt;ocumentar el proceso de obtención de datos&lt;/span&gt;&lt;span style=&quot;background-color: initial;&quot;&gt;.&lt;/span&gt;" style="rounded=1;whiteSpace=wrap;html=1;fontSize=12;glass=0;strokeWidth=0.8;shadow=0;fillColor=#dae8fc;strokeColor=#6c8ebf;opacity=70;" parent="WIyWlLk6GJQsqaUBKTNV-1" vertex="1">
          <mxGeometry x="699" y="434" width="140" height="43" as="geometry" />
        </mxCell>
        <mxCell id="EVUC7kipeZUn4RD7nsKl-45" style="edgeStyle=orthogonalEdgeStyle;rounded=0;orthogonalLoop=1;jettySize=auto;html=1;entryX=0.5;entryY=0;entryDx=0;entryDy=0;fillColor=#ffe6cc;strokeColor=#000000;strokeWidth=0.8;" parent="WIyWlLk6GJQsqaUBKTNV-1" source="EVUC7kipeZUn4RD7nsKl-46" target="EVUC7kipeZUn4RD7nsKl-48" edge="1">
          <mxGeometry relative="1" as="geometry" />
        </mxCell>
        <mxCell id="EVUC7kipeZUn4RD7nsKl-46" value="&lt;b&gt;2.1.&lt;/b&gt; I&lt;span style=&quot;background-color: initial;&quot;&gt;nvestigar y seleccionar algoritmos apropiados para el análisis de datos meteorológicos.&lt;/span&gt;" style="rounded=1;whiteSpace=wrap;html=1;fontSize=12;glass=0;strokeWidth=0.8;shadow=0;fillColor=#ffe6cc;strokeColor=#d79b00;opacity=70;" parent="WIyWlLk6GJQsqaUBKTNV-1" vertex="1">
          <mxGeometry x="879" y="80" width="140" height="70" as="geometry" />
        </mxCell>
        <mxCell id="EVUC7kipeZUn4RD7nsKl-47" value="" style="edgeStyle=orthogonalEdgeStyle;rounded=0;orthogonalLoop=1;jettySize=auto;html=1;fillColor=#ffe6cc;strokeColor=#000000;strokeWidth=0.8;" parent="WIyWlLk6GJQsqaUBKTNV-1" source="EVUC7kipeZUn4RD7nsKl-48" target="EVUC7kipeZUn4RD7nsKl-50" edge="1">
          <mxGeometry relative="1" as="geometry" />
        </mxCell>
        <mxCell id="EVUC7kipeZUn4RD7nsKl-48" value="&lt;b&gt;2.2.&lt;/b&gt; I&lt;span style=&quot;background-color: initial;&quot;&gt;mplementar los modelos seleccionados en el entorno de desarrollo.&lt;/span&gt;" style="rounded=1;whiteSpace=wrap;html=1;fontSize=12;glass=0;strokeWidth=0.8;shadow=0;fillColor=#ffe6cc;strokeColor=#d79b00;opacity=70;" parent="WIyWlLk6GJQsqaUBKTNV-1" vertex="1">
          <mxGeometry x="879" y="166" width="140" height="60" as="geometry" />
        </mxCell>
        <mxCell id="EVUC7kipeZUn4RD7nsKl-49" style="edgeStyle=orthogonalEdgeStyle;rounded=0;orthogonalLoop=1;jettySize=auto;html=1;entryX=0.5;entryY=0;entryDx=0;entryDy=0;fillColor=#ffe6cc;strokeColor=#000000;strokeWidth=0.8;" parent="WIyWlLk6GJQsqaUBKTNV-1" source="EVUC7kipeZUn4RD7nsKl-50" target="EVUC7kipeZUn4RD7nsKl-51" edge="1">
          <mxGeometry relative="1" as="geometry" />
        </mxCell>
        <mxCell id="EVUC7kipeZUn4RD7nsKl-50" value="&lt;b&gt;2.3.&lt;/b&gt; E&lt;span style=&quot;background-color: initial;&quot;&gt;ntrenar y ajustar los modelos con datos &lt;/span&gt;&lt;span style=&quot;background-color: initial;&quot;&gt;preprocesados.&lt;/span&gt;" style="rounded=1;whiteSpace=wrap;html=1;fontSize=12;glass=0;strokeWidth=0.8;shadow=0;fillColor=#ffe6cc;strokeColor=#d79b00;opacity=70;" parent="WIyWlLk6GJQsqaUBKTNV-1" vertex="1">
          <mxGeometry x="879" y="244" width="140" height="50" as="geometry" />
        </mxCell>
        <mxCell id="AED4xQPYgy-msKVutZHK-33" style="edgeStyle=orthogonalEdgeStyle;rounded=0;orthogonalLoop=1;jettySize=auto;html=1;exitX=1;exitY=0.5;exitDx=0;exitDy=0;entryX=0;entryY=0.5;entryDx=0;entryDy=0;strokeWidth=1.2;" parent="WIyWlLk6GJQsqaUBKTNV-1" source="EVUC7kipeZUn4RD7nsKl-51" target="EVUC7kipeZUn4RD7nsKl-53" edge="1">
          <mxGeometry relative="1" as="geometry" />
        </mxCell>
        <mxCell id="EVUC7kipeZUn4RD7nsKl-51" value="&lt;div style=&quot;&quot;&gt;&lt;b style=&quot;background-color: initial;&quot;&gt;2.4. &lt;/b&gt;&lt;span style=&quot;background-color: initial;&quot;&gt;C&lt;/span&gt;&lt;span style=&quot;background-color: initial;&quot;&gt;omparar la precisión y eficiencia de los modelos implementados con el modelo actual.&lt;/span&gt;&lt;/div&gt;" style="rounded=1;whiteSpace=wrap;html=1;fontSize=12;glass=0;strokeWidth=0.8;shadow=0;align=center;fillColor=#ffe6cc;strokeColor=#d79b00;opacity=70;" parent="WIyWlLk6GJQsqaUBKTNV-1" vertex="1">
          <mxGeometry x="879" y="311" width="140" height="70" as="geometry" />
        </mxCell>
        <mxCell id="AED4xQPYgy-msKVutZHK-31" style="edgeStyle=orthogonalEdgeStyle;rounded=0;orthogonalLoop=1;jettySize=auto;html=1;exitX=0.5;exitY=1;exitDx=0;exitDy=0;entryX=0.5;entryY=0;entryDx=0;entryDy=0;fillColor=#f8cecc;strokeColor=#000000;strokeWidth=0.8;" parent="WIyWlLk6GJQsqaUBKTNV-1" source="EVUC7kipeZUn4RD7nsKl-53" target="AED4xQPYgy-msKVutZHK-30" edge="1">
          <mxGeometry relative="1" as="geometry" />
        </mxCell>
        <mxCell id="EVUC7kipeZUn4RD7nsKl-53" value="&lt;b&gt;3.1.&lt;/b&gt; D&lt;span style=&quot;background-color: initial;&quot;&gt;iseñar la arquitectura del sistema de predicción de eventos climáticos.&lt;/span&gt;" style="rounded=1;whiteSpace=wrap;html=1;fontSize=12;glass=0;strokeWidth=0.8;shadow=0;fillColor=#f8cecc;strokeColor=#b85450;opacity=70;" parent="WIyWlLk6GJQsqaUBKTNV-1" vertex="1">
          <mxGeometry x="1059" y="80" width="140" height="60" as="geometry" />
        </mxCell>
        <mxCell id="AED4xQPYgy-msKVutZHK-5" style="edgeStyle=orthogonalEdgeStyle;rounded=0;orthogonalLoop=1;jettySize=auto;html=1;exitX=0.5;exitY=1;exitDx=0;exitDy=0;entryX=0.5;entryY=0;entryDx=0;entryDy=0;fillColor=#f8cecc;strokeColor=#000000;strokeWidth=0.8;" parent="WIyWlLk6GJQsqaUBKTNV-1" source="EVUC7kipeZUn4RD7nsKl-57" target="EVUC7kipeZUn4RD7nsKl-58" edge="1">
          <mxGeometry relative="1" as="geometry" />
        </mxCell>
        <mxCell id="EVUC7kipeZUn4RD7nsKl-57" value="&lt;b&gt;3.3.&lt;/b&gt;&amp;nbsp;I&lt;span style=&quot;background-color: initial;&quot;&gt;mplementar el proceso de emisión de predicciones y alertas.&lt;/span&gt;" style="rounded=1;whiteSpace=wrap;html=1;fontSize=12;glass=0;strokeWidth=0.8;shadow=0;fillColor=#f8cecc;strokeColor=#b85450;opacity=70;" parent="WIyWlLk6GJQsqaUBKTNV-1" vertex="1">
          <mxGeometry x="1059" y="222" width="139" height="49" as="geometry" />
        </mxCell>
        <mxCell id="AED4xQPYgy-msKVutZHK-6" style="edgeStyle=orthogonalEdgeStyle;rounded=0;orthogonalLoop=1;jettySize=auto;html=1;exitX=0.5;exitY=1;exitDx=0;exitDy=0;entryX=0.5;entryY=0;entryDx=0;entryDy=0;fillColor=#f8cecc;strokeColor=#000000;strokeWidth=0.8;" parent="WIyWlLk6GJQsqaUBKTNV-1" source="EVUC7kipeZUn4RD7nsKl-58" target="AED4xQPYgy-msKVutZHK-0" edge="1">
          <mxGeometry relative="1" as="geometry" />
        </mxCell>
        <mxCell id="AED4xQPYgy-msKVutZHK-35" style="edgeStyle=orthogonalEdgeStyle;rounded=0;orthogonalLoop=1;jettySize=auto;html=1;exitX=1;exitY=0.25;exitDx=0;exitDy=0;entryX=0;entryY=0.5;entryDx=0;entryDy=0;fillColor=#f8cecc;strokeColor=#b85450;opacity=70;strokeWidth=0.8;" parent="WIyWlLk6GJQsqaUBKTNV-1" source="AED4xQPYgy-msKVutZHK-0" target="EVUC7kipeZUn4RD7nsKl-60" edge="1">
          <mxGeometry relative="1" as="geometry">
            <Array as="points">
              <mxPoint x="1210" y="396" />
              <mxPoint x="1210" y="100" />
            </Array>
          </mxGeometry>
        </mxCell>
        <mxCell id="EVUC7kipeZUn4RD7nsKl-58" value="&lt;div&gt;&lt;b&gt;3.5.&lt;/b&gt;&amp;nbsp;R&lt;span style=&quot;background-color: initial;&quot;&gt;ealizar pruebas de aceptación con el cliente para validar la funcionalidad del sistema.&lt;/span&gt;&lt;span style=&quot;background-color: initial;&quot;&gt;&lt;br&gt;&lt;/span&gt;&lt;/div&gt;" style="rounded=1;whiteSpace=wrap;html=1;fontSize=12;glass=0;strokeWidth=0.8;shadow=0;fillColor=#f8cecc;strokeColor=#b85450;opacity=70;" parent="WIyWlLk6GJQsqaUBKTNV-1" vertex="1">
          <mxGeometry x="1059" y="287" width="139" height="77" as="geometry" />
        </mxCell>
        <mxCell id="AED4xQPYgy-msKVutZHK-8" style="edgeStyle=orthogonalEdgeStyle;rounded=0;orthogonalLoop=1;jettySize=auto;html=1;exitX=0.5;exitY=1;exitDx=0;exitDy=0;entryX=0.5;entryY=0;entryDx=0;entryDy=0;fillColor=#fff2cc;strokeColor=#000000;strokeWidth=0.8;" parent="WIyWlLk6GJQsqaUBKTNV-1" source="EVUC7kipeZUn4RD7nsKl-60" target="AED4xQPYgy-msKVutZHK-7" edge="1">
          <mxGeometry relative="1" as="geometry" />
        </mxCell>
        <mxCell id="EVUC7kipeZUn4RD7nsKl-60" value="&lt;b&gt;4.1.&lt;/b&gt; G&lt;span style=&quot;background-color: initial;&quot;&gt;estionar riesgos y problemas durante el desarrollo del proyecto.&lt;/span&gt;" style="rounded=1;whiteSpace=wrap;html=1;fontSize=12;glass=0;strokeWidth=0.8;shadow=0;fillColor=#fff2cc;strokeColor=#d6b656;opacity=70;" parent="WIyWlLk6GJQsqaUBKTNV-1" vertex="1">
          <mxGeometry x="1239" y="80" width="140" height="40" as="geometry" />
        </mxCell>
        <mxCell id="-0XEdSMhef69epyfGhon-5" style="edgeStyle=orthogonalEdgeStyle;rounded=0;orthogonalLoop=1;jettySize=auto;html=1;exitX=1;exitY=0.75;exitDx=0;exitDy=0;entryX=0;entryY=0.5;entryDx=0;entryDy=0;strokeWidth=1.2;" parent="WIyWlLk6GJQsqaUBKTNV-1" source="AED4xQPYgy-msKVutZHK-0" target="AED4xQPYgy-msKVutZHK-21" edge="1">
          <mxGeometry relative="1" as="geometry" />
        </mxCell>
        <mxCell id="AED4xQPYgy-msKVutZHK-0" value="&lt;div&gt;&lt;b&gt;3.4.&lt;/b&gt;&amp;nbsp;E&lt;span style=&quot;background-color: initial;&quot;&gt;laborar la documentación técnica del sistema y los manuales de usuario.&lt;/span&gt;&lt;span style=&quot;background-color: initial;&quot;&gt;&lt;br&gt;&lt;/span&gt;&lt;/div&gt;" style="rounded=1;whiteSpace=wrap;html=1;fontSize=12;glass=0;strokeWidth=0.8;shadow=0;fillColor=#f8cecc;strokeColor=#b85450;opacity=70;" parent="WIyWlLk6GJQsqaUBKTNV-1" vertex="1">
          <mxGeometry x="1059" y="382" width="139" height="57.5" as="geometry" />
        </mxCell>
        <mxCell id="-0XEdSMhef69epyfGhon-6" style="edgeStyle=orthogonalEdgeStyle;rounded=0;orthogonalLoop=1;jettySize=auto;html=1;exitX=1;exitY=0.5;exitDx=0;exitDy=0;entryX=1;entryY=0.5;entryDx=0;entryDy=0;strokeWidth=0.8;fillColor=#fff2cc;strokeColor=#d6b656;opacity=70;" parent="WIyWlLk6GJQsqaUBKTNV-1" source="AED4xQPYgy-msKVutZHK-7" target="AED4xQPYgy-msKVutZHK-9" edge="1">
          <mxGeometry relative="1" as="geometry" />
        </mxCell>
        <mxCell id="AED4xQPYgy-msKVutZHK-7" value="&lt;b&gt;4.2.&lt;/b&gt;&amp;nbsp;P&lt;span style=&quot;background-color: initial;&quot;&gt;reparar la presentación pública del proyecto y demostración ante el jurado&lt;/span&gt;&lt;span style=&quot;background-color: initial;&quot;&gt;.&lt;/span&gt;" style="rounded=1;whiteSpace=wrap;html=1;fontSize=12;glass=0;strokeWidth=0.8;shadow=0;fillColor=#fff2cc;strokeColor=#d6b656;opacity=70;" parent="WIyWlLk6GJQsqaUBKTNV-1" vertex="1">
          <mxGeometry x="1239" y="133" width="140" height="60" as="geometry" />
        </mxCell>
        <mxCell id="AED4xQPYgy-msKVutZHK-12" style="edgeStyle=orthogonalEdgeStyle;rounded=0;orthogonalLoop=1;jettySize=auto;html=1;exitX=0.5;exitY=1;exitDx=0;exitDy=0;entryX=0.5;entryY=0;entryDx=0;entryDy=0;fillColor=#d5e8d4;strokeColor=#000000;strokeWidth=0.8;" parent="WIyWlLk6GJQsqaUBKTNV-1" source="AED4xQPYgy-msKVutZHK-9" target="AED4xQPYgy-msKVutZHK-10" edge="1">
          <mxGeometry relative="1" as="geometry" />
        </mxCell>
        <mxCell id="AED4xQPYgy-msKVutZHK-9" value="&lt;b&gt;6.1.&lt;/b&gt;&amp;nbsp;I&lt;span style=&quot;background-color: initial;&quot;&gt;nicio de la elaboración de la memoria técnica.&lt;/span&gt;" style="rounded=1;whiteSpace=wrap;html=1;fontSize=12;glass=0;strokeWidth=0.8;shadow=0;fillColor=#d5e8d4;strokeColor=#82b366;opacity=70;" parent="WIyWlLk6GJQsqaUBKTNV-1" vertex="1">
          <mxGeometry x="1241" y="404.5" width="140" height="40" as="geometry" />
        </mxCell>
        <mxCell id="AED4xQPYgy-msKVutZHK-14" style="edgeStyle=orthogonalEdgeStyle;rounded=0;orthogonalLoop=1;jettySize=auto;html=1;exitX=0.5;exitY=1;exitDx=0;exitDy=0;entryX=0.5;entryY=0;entryDx=0;entryDy=0;fillColor=#d5e8d4;strokeColor=#000000;strokeWidth=0.8;" parent="WIyWlLk6GJQsqaUBKTNV-1" target="AED4xQPYgy-msKVutZHK-13" edge="1">
          <mxGeometry relative="1" as="geometry">
            <mxPoint x="1309" y="492" as="sourcePoint" />
          </mxGeometry>
        </mxCell>
        <mxCell id="AED4xQPYgy-msKVutZHK-10" value="&lt;b&gt;6.2.&lt;/b&gt;&amp;nbsp;R&lt;span style=&quot;background-color: initial;&quot;&gt;evisión y correcciones de la memoria técnica.&lt;/span&gt;" style="rounded=1;whiteSpace=wrap;html=1;fontSize=12;glass=0;strokeWidth=0.8;shadow=0;fillColor=#d5e8d4;strokeColor=#82b366;opacity=70;" parent="WIyWlLk6GJQsqaUBKTNV-1" vertex="1">
          <mxGeometry x="1239" y="458" width="140" height="40" as="geometry" />
        </mxCell>
        <mxCell id="AED4xQPYgy-msKVutZHK-16" style="edgeStyle=orthogonalEdgeStyle;rounded=0;orthogonalLoop=1;jettySize=auto;html=1;exitX=0;exitY=0.5;exitDx=0;exitDy=0;entryX=1;entryY=0.5;entryDx=0;entryDy=0;fillColor=#d5e8d4;strokeColor=#000000;strokeWidth=0.8;" parent="WIyWlLk6GJQsqaUBKTNV-1" source="AED4xQPYgy-msKVutZHK-13" target="AED4xQPYgy-msKVutZHK-15" edge="1">
          <mxGeometry relative="1" as="geometry" />
        </mxCell>
        <mxCell id="AED4xQPYgy-msKVutZHK-13" value="&lt;b&gt;6.3.&lt;/b&gt;&amp;nbsp;F&lt;span style=&quot;background-color: initial;&quot;&gt;inalización&lt;/span&gt;&lt;span style=&quot;background-color: initial;&quot;&gt; de la elaboración de la memoria técnica.&lt;/span&gt;" style="rounded=1;whiteSpace=wrap;html=1;fontSize=12;glass=0;strokeWidth=0.8;shadow=0;fillColor=#d5e8d4;strokeColor=#82b366;opacity=70;" parent="WIyWlLk6GJQsqaUBKTNV-1" vertex="1">
          <mxGeometry x="1239" y="511" width="140" height="40" as="geometry" />
        </mxCell>
        <mxCell id="AED4xQPYgy-msKVutZHK-19" style="edgeStyle=orthogonalEdgeStyle;rounded=0;orthogonalLoop=1;jettySize=auto;html=1;exitX=0;exitY=0.5;exitDx=0;exitDy=0;entryX=1;entryY=0.5;entryDx=0;entryDy=0;fillColor=#d5e8d4;strokeColor=#000000;strokeWidth=0.8;" parent="WIyWlLk6GJQsqaUBKTNV-1" source="AED4xQPYgy-msKVutZHK-15" target="AED4xQPYgy-msKVutZHK-17" edge="1">
          <mxGeometry relative="1" as="geometry" />
        </mxCell>
        <mxCell id="AED4xQPYgy-msKVutZHK-15" value="&lt;b&gt;6.4.&lt;/b&gt;&amp;nbsp;R&lt;span style=&quot;background-color: initial;&quot;&gt;evisión y correcciones de la memoria técnica final.&lt;/span&gt;" style="rounded=1;whiteSpace=wrap;html=1;fontSize=12;glass=0;strokeWidth=0.8;shadow=0;fillColor=#d5e8d4;strokeColor=#82b366;opacity=70;" parent="WIyWlLk6GJQsqaUBKTNV-1" vertex="1">
          <mxGeometry x="1057" y="511" width="140" height="40" as="geometry" />
        </mxCell>
        <mxCell id="AED4xQPYgy-msKVutZHK-20" style="edgeStyle=orthogonalEdgeStyle;rounded=0;orthogonalLoop=1;jettySize=auto;html=1;exitX=0;exitY=0.5;exitDx=0;exitDy=0;entryX=1;entryY=0.5;entryDx=0;entryDy=0;fillColor=#d5e8d4;strokeColor=#000000;strokeWidth=0.8;" parent="WIyWlLk6GJQsqaUBKTNV-1" source="AED4xQPYgy-msKVutZHK-17" target="AED4xQPYgy-msKVutZHK-18" edge="1">
          <mxGeometry relative="1" as="geometry" />
        </mxCell>
        <mxCell id="AED4xQPYgy-msKVutZHK-17" value="&lt;b&gt;6.5.&lt;/b&gt;&amp;nbsp;E&lt;span style=&quot;background-color: initial;&quot;&gt;laboración de la presentación final&lt;/span&gt;" style="rounded=1;whiteSpace=wrap;html=1;fontSize=12;glass=0;strokeWidth=0.8;shadow=0;fillColor=#d5e8d4;strokeColor=#82b366;opacity=70;" parent="WIyWlLk6GJQsqaUBKTNV-1" vertex="1">
          <mxGeometry x="879" y="511" width="140" height="40" as="geometry" />
        </mxCell>
        <mxCell id="AED4xQPYgy-msKVutZHK-41" style="edgeStyle=orthogonalEdgeStyle;rounded=0;orthogonalLoop=1;jettySize=auto;html=1;exitX=0.5;exitY=1;exitDx=0;exitDy=0;entryX=0.5;entryY=0;entryDx=0;entryDy=0;" parent="WIyWlLk6GJQsqaUBKTNV-1" source="AED4xQPYgy-msKVutZHK-18" target="AED4xQPYgy-msKVutZHK-39" edge="1">
          <mxGeometry relative="1" as="geometry" />
        </mxCell>
        <mxCell id="AED4xQPYgy-msKVutZHK-18" value="&lt;b&gt;6.6.&lt;/b&gt;&amp;nbsp;R&lt;span style=&quot;background-color: initial;&quot;&gt;evisión y correcciones de la presentación final.&lt;/span&gt;" style="rounded=1;whiteSpace=wrap;html=1;fontSize=12;glass=0;strokeWidth=0.8;shadow=0;fillColor=#d5e8d4;strokeColor=#82b366;opacity=70;" parent="WIyWlLk6GJQsqaUBKTNV-1" vertex="1">
          <mxGeometry x="699" y="511" width="140" height="40" as="geometry" />
        </mxCell>
        <mxCell id="AED4xQPYgy-msKVutZHK-24" style="edgeStyle=orthogonalEdgeStyle;rounded=0;orthogonalLoop=1;jettySize=auto;html=1;exitX=0.5;exitY=1;exitDx=0;exitDy=0;entryX=0.5;entryY=0;entryDx=0;entryDy=0;fillColor=#e1d5e7;strokeColor=#000000;strokeWidth=0.8;" parent="WIyWlLk6GJQsqaUBKTNV-1" source="AED4xQPYgy-msKVutZHK-21" target="AED4xQPYgy-msKVutZHK-22" edge="1">
          <mxGeometry relative="1" as="geometry" />
        </mxCell>
        <mxCell id="AED4xQPYgy-msKVutZHK-21" value="&lt;b&gt;5.1.&lt;/b&gt;&amp;nbsp;I&lt;span style=&quot;background-color: initial;&quot;&gt;nvestigación y recopilación de información relevante.&lt;/span&gt;" style="rounded=1;whiteSpace=wrap;html=1;fontSize=12;glass=0;strokeWidth=0.8;shadow=0;fillColor=#e1d5e7;strokeColor=#9673a6;opacity=70;" parent="WIyWlLk6GJQsqaUBKTNV-1" vertex="1">
          <mxGeometry x="1239" y="224" width="140" height="40" as="geometry" />
        </mxCell>
        <mxCell id="AED4xQPYgy-msKVutZHK-25" style="edgeStyle=orthogonalEdgeStyle;rounded=0;orthogonalLoop=1;jettySize=auto;html=1;exitX=0.5;exitY=1;exitDx=0;exitDy=0;entryX=0.5;entryY=0;entryDx=0;entryDy=0;fillColor=#e1d5e7;strokeColor=#000000;strokeWidth=0.8;" parent="WIyWlLk6GJQsqaUBKTNV-1" source="AED4xQPYgy-msKVutZHK-22" target="AED4xQPYgy-msKVutZHK-23" edge="1">
          <mxGeometry relative="1" as="geometry" />
        </mxCell>
        <mxCell id="AED4xQPYgy-msKVutZHK-22" value="&lt;b&gt;5.2.&lt;/b&gt;&amp;nbsp;R&lt;span style=&quot;background-color: initial;&quot;&gt;edacción del artículo científico.&lt;/span&gt;" style="rounded=1;whiteSpace=wrap;html=1;fontSize=12;glass=0;strokeWidth=0.8;shadow=0;fillColor=#e1d5e7;strokeColor=#9673a6;opacity=70;" parent="WIyWlLk6GJQsqaUBKTNV-1" vertex="1">
          <mxGeometry x="1239" y="276" width="140" height="40" as="geometry" />
        </mxCell>
        <mxCell id="AED4xQPYgy-msKVutZHK-42" style="edgeStyle=orthogonalEdgeStyle;rounded=0;orthogonalLoop=1;jettySize=auto;html=1;exitX=0.5;exitY=1;exitDx=0;exitDy=0;entryX=0.5;entryY=0;entryDx=0;entryDy=0;" parent="WIyWlLk6GJQsqaUBKTNV-1" source="AED4xQPYgy-msKVutZHK-23" target="AED4xQPYgy-msKVutZHK-9" edge="1">
          <mxGeometry relative="1" as="geometry" />
        </mxCell>
        <mxCell id="AED4xQPYgy-msKVutZHK-23" value="&lt;b&gt;5.3. &lt;/b&gt;&lt;span style=&quot;background-color: initial;&quot;&gt;Revisión y corrección del artículo científico.&lt;/span&gt;&lt;span style=&quot;background-color: initial;&quot;&gt;&amp;nbsp;&lt;/span&gt;" style="rounded=1;whiteSpace=wrap;html=1;fontSize=12;glass=0;strokeWidth=0.8;shadow=0;fillColor=#e1d5e7;strokeColor=#9673a6;opacity=70;" parent="WIyWlLk6GJQsqaUBKTNV-1" vertex="1">
          <mxGeometry x="1239" y="331" width="140" height="40" as="geometry" />
        </mxCell>
        <mxCell id="AED4xQPYgy-msKVutZHK-32" style="edgeStyle=orthogonalEdgeStyle;rounded=0;orthogonalLoop=1;jettySize=auto;html=1;exitX=0.5;exitY=1;exitDx=0;exitDy=0;entryX=0.5;entryY=0;entryDx=0;entryDy=0;fillColor=#f8cecc;strokeColor=#000000;strokeWidth=0.8;" parent="WIyWlLk6GJQsqaUBKTNV-1" source="AED4xQPYgy-msKVutZHK-30" target="EVUC7kipeZUn4RD7nsKl-57" edge="1">
          <mxGeometry relative="1" as="geometry" />
        </mxCell>
        <mxCell id="AED4xQPYgy-msKVutZHK-30" value="&lt;b&gt;3.2.&lt;/b&gt; I&lt;span style=&quot;background-color: initial;&quot;&gt;mplementar el sistema de predicción de eventos climáticos&lt;/span&gt;&lt;span style=&quot;background-color: initial;&quot;&gt;.&lt;/span&gt;" style="rounded=1;whiteSpace=wrap;html=1;fontSize=12;glass=0;strokeWidth=0.8;shadow=0;fillColor=#f8cecc;strokeColor=#b85450;opacity=70;" parent="WIyWlLk6GJQsqaUBKTNV-1" vertex="1">
          <mxGeometry x="1059.5" y="156" width="139" height="49" as="geometry" />
        </mxCell>
        <mxCell id="AED4xQPYgy-msKVutZHK-38" style="edgeStyle=orthogonalEdgeStyle;rounded=0;orthogonalLoop=1;jettySize=auto;html=1;exitX=0.5;exitY=1;exitDx=0;exitDy=0;entryX=0.5;entryY=0;entryDx=0;entryDy=0;" parent="WIyWlLk6GJQsqaUBKTNV-1" source="AED4xQPYgy-msKVutZHK-37" target="EVUC7kipeZUn4RD7nsKl-32" edge="1">
          <mxGeometry relative="1" as="geometry" />
        </mxCell>
        <mxCell id="AED4xQPYgy-msKVutZHK-37" value="INICIO&lt;div&gt;&lt;font style=&quot;font-size: 11px;&quot;&gt;06/2024&lt;/font&gt;&lt;/div&gt;" style="ellipse;whiteSpace=wrap;html=1;aspect=fixed;" parent="WIyWlLk6GJQsqaUBKTNV-1" vertex="1">
          <mxGeometry x="744" y="10" width="50" height="50" as="geometry" />
        </mxCell>
        <mxCell id="AED4xQPYgy-msKVutZHK-39" value="FIN&lt;div&gt;&lt;font style=&quot;font-size: 11px;&quot;&gt;12/2024&lt;/font&gt;&lt;/div&gt;" style="ellipse;whiteSpace=wrap;html=1;aspect=fixed;" parent="WIyWlLk6GJQsqaUBKTNV-1" vertex="1">
          <mxGeometry x="744" y="576" width="50" height="50" as="geometry" />
        </mxCell>
        <mxCell id="AED4xQPYgy-msKVutZHK-48" value="&lt;font face=&quot;Helvetica&quot;&gt;100 h.&lt;/font&gt;" style="rounded=1;whiteSpace=wrap;html=1;fontSize=12;glass=0;strokeWidth=0.8;shadow=0;fillColor=#dae8fc;strokeColor=#6c8ebf;opacity=70;" parent="WIyWlLk6GJQsqaUBKTNV-1" vertex="1">
          <mxGeometry x="799" y="57" width="40" height="20" as="geometry" />
        </mxCell>
        <mxCell id="AED4xQPYgy-msKVutZHK-49" value="&lt;font face=&quot;Helvetica&quot;&gt;180 h.&lt;/font&gt;" style="rounded=1;whiteSpace=wrap;html=1;fontSize=12;glass=0;strokeWidth=0.8;shadow=0;fillColor=#ffe6cc;strokeColor=#d79b00;opacity=70;" parent="WIyWlLk6GJQsqaUBKTNV-1" vertex="1">
          <mxGeometry x="979" y="57" width="40" height="20" as="geometry" />
        </mxCell>
        <mxCell id="AED4xQPYgy-msKVutZHK-50" value="&lt;font face=&quot;Helvetica&quot;&gt;150 h.&lt;/font&gt;" style="rounded=1;whiteSpace=wrap;html=1;fontSize=12;glass=0;strokeWidth=0.8;shadow=0;fillColor=#f8cecc;strokeColor=#b85450;opacity=70;" parent="WIyWlLk6GJQsqaUBKTNV-1" vertex="1">
          <mxGeometry x="1158" y="57" width="40" height="20" as="geometry" />
        </mxCell>
        <mxCell id="AED4xQPYgy-msKVutZHK-51" value="&lt;font face=&quot;Helvetica&quot;&gt;50 h.&lt;/font&gt;" style="rounded=1;whiteSpace=wrap;html=1;fontSize=12;glass=0;strokeWidth=0.8;shadow=0;fillColor=#fff2cc;strokeColor=#d6b656;opacity=70;" parent="WIyWlLk6GJQsqaUBKTNV-1" vertex="1">
          <mxGeometry x="1340" y="57" width="40" height="20" as="geometry" />
        </mxCell>
        <mxCell id="AED4xQPYgy-msKVutZHK-52" value="&lt;font face=&quot;Helvetica&quot;&gt;60 h.&lt;/font&gt;" style="rounded=1;whiteSpace=wrap;html=1;fontSize=12;glass=0;strokeWidth=0.8;shadow=0;fillColor=#e1d5e7;strokeColor=#9673a6;opacity=70;" parent="WIyWlLk6GJQsqaUBKTNV-1" vertex="1">
          <mxGeometry x="1339" y="202" width="40" height="20" as="geometry" />
        </mxCell>
        <mxCell id="AED4xQPYgy-msKVutZHK-53" value="&lt;font face=&quot;Helvetica&quot;&gt;60 h.&lt;/font&gt;" style="rounded=1;whiteSpace=wrap;html=1;fontSize=12;glass=0;strokeWidth=0.8;shadow=0;fillColor=#d5e8d4;strokeColor=#82b366;opacity=70;" parent="WIyWlLk6GJQsqaUBKTNV-1" vertex="1">
          <mxGeometry x="1340" y="381.5" width="40" height="20" as="geometry" />
        </mxCell>
      </root>
    </mxGraphModel>
  </diagram>
</mxfile>
